<svg xmlns="http://www.w3.org/2000/svg" width="512" height="512"><rect width="100%" height="100%" fill="none"/><g class="currentLayer"><title>Layer 1</title><path d="M256 0C161.33 0 84.312 77.018 84.312 171.688c0 54.38 25.587 105.127 68.882 137.502v125.043c0 9.22 7.475 16.696 16.696 16.696h10.168C187.72 485.81 218.85 512 256 512c37.15 0 68.28-26.19 75.943-61.072h10.168c9.22 0 16.696-7.475 16.696-16.696V309.189c43.294-32.375 68.882-83.122 68.882-137.502C427.688 77.018 350.67 0 256 0zm0 478.609c-18.567 0-34.507-11.461-41.116-27.68h82.233c-6.61 16.219-22.55 27.68-41.117 27.68zm69.415-61.072h-138.83v-39.041h138.83v39.041zM211.096 242.095h-8.057c-4.443 0-8.058-3.615-8.058-8.058s3.615-8.057 8.058-8.057 8.057 3.614 8.057 8.057v8.058zm33.392 103.01v-69.619h23.017v69.619h-23.017zm88.336-58.421a16.696 16.696 0 0 0-7.41 13.875v44.545h-24.519v-69.619h8.058c22.855 0 41.449-18.594 41.449-41.45 0-22.855-18.593-41.449-41.449-41.449-22.855 0-41.45 18.593-41.45 41.449v8.058h-23.017v-8.058c0-22.855-18.593-41.449-41.449-41.449-22.855 0-41.45 18.593-41.45 41.449s18.594 41.45 41.45 41.45h8.057v69.619h-24.511V300.56a16.694 16.694 0 0 0-7.41-13.875c-38.491-25.759-61.472-68.748-61.472-114.996 0-76.258 62.039-138.297 138.297-138.297S394.297 95.43 394.297 171.688c0 46.249-22.981 89.238-61.473 114.996zm-31.928-44.589v-8.058c0-4.443 3.615-8.057 8.058-8.057s8.057 3.614 8.057 8.057-3.614 8.058-8.057 8.058h-8.058z" class="selected" fill="#5c30ff"/></g></svg>