<svg xmlns="http://www.w3.org/2000/svg" width="512" height="512"><rect width="100%" height="100%" fill="none"/><g class="currentLayer"><title>Layer 1</title><g class="selected" fill="#5c30ff"><path d="M478.201 226.838c-17.456-26.807-41.609-52.188-71.789-75.439-33.105-25.505-65.977-42.727-85.344-51.817l26.908-69.645a19.972 19.972 0 0 0 1.341-7.194v-1.996a19.961 19.961 0 0 0-27.023-18.67c-44.96 17.005-88.657 17.008-133.583.001a19.963 19.963 0 0 0-27.027 18.669v1.996c0 2.46.455 4.9 1.341 7.194l26.921 69.678c-19.279 9.098-51.974 26.32-84.897 51.814-30.031 23.255-54.064 48.64-71.432 75.448C11.311 261.31 0 298.07 0 336.132c0 52.21 15.811 96.432 45.724 127.885 29.191 30.695 69.859 47.54 117.605 48.71.161.004.321.006.483.006l180.005.054c.144 0 .287 0 .431-.004 58.141-1.24 106.521-25.175 136.231-67.394 6.344-9.015 4.178-21.467-4.838-27.812s-21.467-4.18-27.812 4.837c-22.185 31.526-59.189 49.438-104.222 50.451l-179.534-.054c-76.584-1.984-124.151-54.336-124.151-136.679 0-55.344 29.885-106.673 88.823-152.557 38.834-30.233 78.357-48.16 89.801-53.04h64.244l.918.8c70.688 61.494 106.53 124.02 106.53 185.835 0 11.024 8.937 19.961 19.961 19.961s19.961-8.937 19.961-19.96c0-43.439-14.076-86.838-41.866-129.205 43.031 34.677 83.784 84.36 83.784 148.166 0 11.024 8.937 19.961 19.961 19.961S512 347.156 512 336.133c0-38.08-11.372-74.853-33.799-109.295zM281.736 90.611h-52.471l-15.448-39.984c27.75 5.371 55.611 5.37 83.368-.005l-15.449 39.99z"/><path d="M255.481 440.927c11.024 0 19.961-8.937 19.961-19.96v-11.56c27.458-3.837 47.926-26.42 47.926-54.562v-4.899c0-15.083-5.903-29.173-16.624-39.673-10.571-10.355-24.647-16.058-39.632-16.058h-18.291c-8.794 0-16.222-7.77-16.222-16.967v-7.28c0-8.937 6.974-15.675 16.222-15.675h17.297c5.083 0 10.342 3.403 10.342 9.098 0 11.024 8.937 19.961 19.961 19.961s19.961-8.937 19.961-19.96c0-23.923-17.665-43.885-40.94-48.162v-12.836c0-11.024-8.937-19.96-19.961-19.96s-19.961 8.936-19.961 19.96v13.522c-9.88 2.332-18.929 7.258-26.268 14.44-10.689 10.46-16.576 24.527-16.576 39.613v7.28c0 31.37 25.186 56.89 56.144 56.89h18.291c9.16 0 16.334 6.943 16.334 15.808v4.9c0 8.676-7.022 15.22-16.334 15.22h-29.727c-4.905 0-9.871-3.085-9.871-8.982 0-11.024-8.937-19.96-19.961-19.96s-19.961 8.936-19.961 19.96c0 26.808 20.905 47.925 47.926 48.86v11.023c.003 11.023 8.94 19.96 19.964 19.96z"/></g></g></svg>