<svg xmlns="http://www.w3.org/2000/svg" viewBox="0 0 512 512" width="512" height="512"><g fill="#f60"><path d="M478.201 226.051c-17.456-26.807-41.609-52.188-71.789-75.439-33.105-25.505-65.977-42.727-85.344-51.817l26.908-69.645a19.972 19.972 0 0 0 1.341-7.194V19.96a19.961 19.961 0 0 0-27.023-18.67c-44.96 17.005-88.657 17.008-133.583.001a19.963 19.963 0 0 0-27.027 18.669v1.996c0 2.46.455 4.899 1.341 7.194l26.921 69.678c-19.279 9.098-51.974 26.319-84.897 51.814-30.031 23.255-54.064 48.639-71.432 75.448C11.311 260.523 0 297.282 0 335.345c0 52.21 15.811 96.432 45.724 127.885 29.191 30.695 69.859 47.539 117.605 48.71.161.004.321.006.483.006l180.005.054c.144 0 .287-.001.431-.004 58.141-1.241 106.521-25.175 136.231-67.394 6.344-9.015 4.178-21.467-4.838-27.812s-21.467-4.18-27.812 4.837c-22.185 31.526-59.189 49.438-104.222 50.451l-179.534-.054C87.489 470.04 39.922 417.688 39.922 335.345c0-55.344 29.885-106.673 88.823-152.557 38.834-30.233 78.357-48.161 89.801-53.04h64.244l.918.799c70.688 61.495 106.53 124.02 106.53 185.836 0 11.024 8.937 19.961 19.961 19.961s19.961-8.937 19.961-19.961c0-43.438-14.076-86.837-41.866-129.204 43.031 34.677 83.784 84.36 83.784 148.166 0 11.024 8.937 19.961 19.961 19.961S512 346.369 512 335.345c0-38.08-11.372-74.852-33.799-109.294zM281.736 89.824h-52.471L213.817 49.84c27.75 5.371 55.611 5.369 83.368-.005l-15.449 39.989z"/><path d="M255.481 440.14c11.024 0 19.961-8.937 19.961-19.961v-11.56c27.458-3.836 47.926-26.42 47.926-54.561v-4.899c0-15.083-5.903-29.173-16.624-39.673-10.571-10.355-24.647-16.058-39.632-16.058h-18.291c-8.794 0-16.222-7.77-16.222-16.967v-7.28c0-8.937 6.974-15.675 16.222-15.675h17.297c5.083 0 10.342 3.403 10.342 9.098 0 11.024 8.937 19.961 19.961 19.961s19.961-8.937 19.961-19.961c0-23.922-17.665-43.884-40.94-48.161v-12.836c0-11.024-8.937-19.961-19.961-19.961s-19.961 8.937-19.961 19.961v13.522c-9.88 2.332-18.929 7.258-26.268 14.439-10.689 10.46-16.576 24.528-16.576 39.614v7.28c0 31.369 25.186 56.889 56.144 56.889h18.291c9.16 0 16.334 6.944 16.334 15.809v4.899c0 8.677-7.022 15.221-16.334 15.221h-29.727c-4.905 0-9.871-3.085-9.871-8.982 0-11.024-8.937-19.961-19.961-19.961s-19.961 8.937-19.961 19.961c0 26.808 20.905 47.925 47.926 48.86v11.023c.003 11.023 8.94 19.959 19.964 19.959z"/></g></svg>