<svg xmlns="http://www.w3.org/2000/svg" xmlns:xlink="http://www.w3.org/1999/xlink" version="1.1" style="enable-background:new 0 0 512 512;" xml:space="preserve" width="512" height="512"><rect id="backgroundrect" width="100%" height="100%" x="0" y="0" fill="none" stroke="none"/>
















<g class="currentLayer" style=""><title>Layer 1</title><g id="svg_1" class="selected" fill="#5c30ff" fill-opacity="1">
	<g id="svg_2" fill="#5c30ff" fill-opacity="1">
		<g id="svg_3" fill="#5c30ff" fill-opacity="1">
			<path d="M478.201,226.83840155696868 c-17.456,-26.807 -41.609,-52.188 -71.789,-75.439 c-33.105,-25.505 -65.977,-42.727 -85.344,-51.817 l26.908,-69.645 c0.8860000000000001,-2.294 1.3410000000000002,-4.734 1.3410000000000002,-7.194 v-1.996 c0,-6.557 -3.221,-12.695 -8.615,-16.422 c-5.394,-3.7270000000000003 -12.275,-4.567 -18.408,-2.248 c-44.96,17.005 -88.657,17.008 -133.583,0.0010000000000000002 c-6.133,-2.3200000000000003 -13.015,-1.482 -18.411,2.245 c-5.3950000000000005,3.7270000000000003 -8.616,9.867 -8.616,16.424 v1.996 c0,2.46 0.455,4.899 1.3410000000000002,7.194 l26.921,69.678 c-19.279,9.098 -51.974,26.319 -84.897,51.814 c-30.031,23.255 -54.064,48.639 -71.432,75.448 C11.311,261.3104015569687 0,298.06940155696867 0,336.1324015569687 c0,52.21 15.811,96.432 45.724,127.885 c29.191,30.695 69.859,47.539 117.605,48.71 c0.16100000000000003,0.004000000000000001 0.32100000000000006,0.006000000000000002 0.48300000000000004,0.006000000000000002 L343.817,512.7874015569687 c0.14400000000000002,0 0.28700000000000003,-0.0010000000000000002 0.43100000000000005,-0.004000000000000001 c58.141,-1.241 106.521,-25.175 136.231,-67.394 c6.344,-9.015 4.178,-21.467 -4.838,-27.812 s-21.467,-4.18 -27.812,4.837 c-22.185,31.526 -59.189,49.438 -104.222,50.451 l-179.534,-0.05400000000000001 C87.489,470.8274015569687 39.922,418.4754015569687 39.922,336.1324015569687 c0,-55.344 29.885,-106.673 88.823,-152.557 c38.834,-30.233 78.357,-48.161 89.801,-53.04 h64.244 c0.29600000000000004,0.258 0.6020000000000001,0.524 0.918,0.799 c70.688,61.495 106.53,124.02 106.53,185.836 c0,11.024 8.937,19.961 19.961,19.961 c11.024,0 19.961,-8.937 19.961,-19.961 c0,-43.438 -14.076,-86.837 -41.866,-129.204 c43.031,34.677 83.784,84.36 83.784,148.166 c0,11.024 8.937,19.961 19.961,19.961 S512,347.1564015569687 512,336.1324015569687 C512,298.0524015569687 500.628,261.2804015569687 478.201,226.83840155696868 zM281.736,90.61140155696869 h-52.471 L213.817,50.62740155696869 c27.75,5.371 55.611,5.369 83.368,-0.005000000000000001 L281.736,90.61140155696869 z" fill="#5c30ff" id="svg_4" fill-opacity="1"/>
			<path d="M255.481,440.9274015569687 c11.024,0 19.961,-8.937 19.961,-19.961 v-11.56 c27.458,-3.8360000000000003 47.926,-26.42 47.926,-54.561 v-4.899 c0,-15.083 -5.9030000000000005,-29.173 -16.624,-39.673 c-10.571,-10.355 -24.647,-16.058 -39.632,-16.058 h-18.291 c-8.794,0 -16.222,-7.77 -16.222,-16.967 v-7.28 c0,-8.937 6.974,-15.675 16.222,-15.675 h17.297 c5.083,0 10.342,3.403 10.342,9.098 c0,11.024 8.937,19.961 19.961,19.961 c11.024,0 19.961,-8.937 19.961,-19.961 c0,-23.922 -17.665,-43.884 -40.94,-48.161 v-12.836 c0,-11.024 -8.937,-19.961 -19.961,-19.961 s-19.961,8.937 -19.961,19.961 v13.522 c-9.88,2.332 -18.929,7.258 -26.268,14.439 c-10.689,10.46 -16.576,24.528 -16.576,39.614 v7.28 c0,31.369 25.186,56.889 56.144,56.889 h18.291 c9.16,0 16.334,6.944 16.334,15.809 v4.899 c0,8.677 -7.022,15.221 -16.334,15.221 h-29.727 c-4.905,0 -9.871,-3.085 -9.871,-8.982 c0,-11.024 -8.937,-19.961 -19.961,-19.961 s-19.961,8.937 -19.961,19.961 c0,26.808 20.905,47.925 47.926,48.86 v11.023 C235.52,431.9914015569687 244.457,440.9274015569687 255.481,440.9274015569687 z" fill="#5c30ff" id="svg_5" fill-opacity="1"/>
		</g>
	</g>
</g><g id="svg_6">
</g><g id="svg_7">
</g><g id="svg_8">
</g><g id="svg_9">
</g><g id="svg_10">
</g><g id="svg_11">
</g><g id="svg_12">
</g><g id="svg_13">
</g><g id="svg_14">
</g><g id="svg_15">
</g><g id="svg_16">
</g><g id="svg_17">
</g><g id="svg_18">
</g><g id="svg_19">
</g><g id="svg_20">
</g></g></svg>